<?xml version="1.0" encoding="utf-8"?>
<svg version="1.1" xmlns="http://www.w3.org/2000/svg" xmlns:xlink="http://www.w3.org/1999/xlink">
	<defs>

		<symbol id="logo" viewBox="0 0 119 52" fill="none">
			<rect width="118.733" height="52" rx="26" fill="#1D4C42" />
			<path
				d="M28.3469 39.8666C27.0507 39.8666 26 38.8126 26 37.5131V14.4868C26 13.1873 27.0507 12.1333 28.3469 12.1333C29.6432 12.1333 30.6939 13.1873 30.6939 14.4868V37.5139C30.6939 38.8126 29.6432 39.8666 28.3469 39.8666Z"
				fill="white" />
			<path
				d="M28.4244 32.9166C27.7069 32.9265 26.9943 32.6082 26.5264 31.994C25.7394 30.964 25.9369 29.4908 26.9678 28.7047L35.7033 22.035C36.7333 21.2489 38.2065 21.4464 38.9926 22.4765C39.7796 23.5065 39.5821 24.9797 38.5512 25.7658L29.8157 32.4354C29.3991 32.7529 28.9105 32.91 28.4244 32.9166Z"
				fill="#F3C133" />
			<path
				d="M37.1368 39.8666C36.6391 39.8666 36.1381 39.7063 35.7132 39.3764L26.9108 32.5225C25.889 31.7264 25.698 30.2433 26.485 29.21C27.2729 28.1766 28.7394 27.984 29.7603 28.7793L38.5628 35.6332C39.5845 36.4293 39.7755 37.9124 38.9885 38.9457C38.5289 39.55 37.8361 39.8666 37.1368 39.8666Z"
				fill="#FF6354" />
			<path
				d="M46.3357 39.8665C45.0395 39.8665 43.9888 38.8034 43.9888 37.4931V23.9273C43.9888 22.6162 45.0395 21.554 46.3357 21.554C47.6319 21.554 48.6826 22.6171 48.6826 23.9273V37.4931C48.6826 38.8034 47.6319 39.8665 46.3357 39.8665Z"
				fill="#D0A6CC" />
			<path
				d="M46.3277 18.2795C47.8207 18.2795 49.031 17.0692 49.031 15.5763C49.031 14.0833 47.8207 12.873 46.3277 12.873C44.8348 12.873 43.6245 14.0833 43.6245 15.5763C43.6245 17.0692 44.8348 18.2795 46.3277 18.2795Z"
				fill="white" />
			<path
				d="M91.0588 30.6665C91.0588 30.6781 91.0604 30.6896 91.0604 30.7012C91.0604 33.1548 88.859 35.1512 86.1533 35.1512C83.4475 35.1512 81.2461 33.1548 81.2461 30.7012C81.2461 30.6896 81.2478 30.6781 81.2478 30.6665H76.5539C76.5539 30.6781 76.5522 30.6896 76.5522 30.7012C76.5522 35.7431 80.8592 39.8451 86.1533 39.8451C91.4473 39.8451 95.7551 35.7439 95.7551 30.7012C95.7551 30.6896 95.7534 30.6781 95.7534 30.6665H91.0588Z"
				fill="#D0A6CC" />
			<path
				d="M95.7525 30.6682H91.0586C91.0396 28.227 88.8481 26.2512 86.1539 26.2512C83.4598 26.2512 81.2675 28.227 81.2493 30.6682H81.2402C81.2451 30.7012 81.2451 30.7343 81.2451 30.7665C81.2451 32.0619 80.1936 33.1135 78.8982 33.1135C77.6078 33.1135 76.5562 32.0619 76.5562 30.7665C76.5562 30.7335 76.5562 30.7012 76.5612 30.6682H76.5562C76.5562 30.6773 76.5513 30.6913 76.5513 30.7012C76.5513 25.6602 80.8599 21.5574 86.1548 21.5574C91.4389 21.5582 95.7335 25.6411 95.7525 30.6682Z"
				fill="white" />
			<path
				d="M93.4076 33.1118C94.7019 33.1118 95.7512 32.0625 95.7512 30.7682C95.7512 29.4738 94.7019 28.4246 93.4076 28.4246C92.1132 28.4246 91.064 29.4738 91.064 30.7682C91.064 32.0625 92.1132 33.1118 93.4076 33.1118Z"
				fill="#F3C133" />
			<path
				d="M72.3657 30.7014C72.3657 30.751 72.3591 30.7998 72.3574 30.8494C72.3591 30.8114 72.369 30.775 72.369 30.7361C72.369 30.7246 72.3657 30.7138 72.3657 30.7014Z"
				fill="#FF6354" />
			<path
				d="M70.0286 39.8668C68.7323 39.8668 67.6816 38.8119 67.6816 37.5116V14.4895C67.6816 13.1891 68.7323 12.1343 70.0286 12.1343C71.3248 12.1343 72.3755 13.1891 72.3755 14.4895V37.5116C72.3755 38.8119 71.3248 39.8668 70.0286 39.8668Z"
				fill="white" />
			<path
				d="M70.0287 33.0806C71.323 33.0806 72.3723 32.0313 72.3723 30.7369C72.3723 29.4426 71.323 28.3933 70.0287 28.3933C68.7343 28.3933 67.6851 29.4426 67.6851 30.7369C67.6851 32.0313 68.7343 33.0806 70.0287 33.0806Z"
				fill="#FF6354" />
			<path
				d="M67.684 37.5215V30.6237H67.6955C67.7559 29.3829 68.7727 28.3933 70.0284 28.3933C71.2842 28.3933 72.301 29.3829 72.3613 30.6237H72.3712C72.3216 25.6223 68.0378 21.5667 62.7744 21.5667C57.4803 21.5667 53.1733 25.6686 53.1733 30.7105C53.1733 35.7524 57.4803 39.8544 62.7744 39.8544C64.6493 39.8544 66.3944 39.3319 67.8741 38.4441C67.7526 38.1605 67.684 37.8489 67.684 37.5215ZM62.7735 35.1605C60.0678 35.1605 57.8664 33.1641 57.8664 30.7105C57.8664 28.2569 60.0678 26.2605 62.7735 26.2605C65.4792 26.2605 67.6807 28.2569 67.6807 30.7105C67.6815 33.1641 65.4792 35.1605 62.7735 35.1605Z"
				fill="#97C2E1" />
		</symbol>

		<symbol id='stain-1' viewBox="0 0 258 248" fill="none">
			<path
				d="M258 79.8856C258 88.0598 253.597 95.6102 246.456 99.6815L212.978 118.768C205.884 122.813 197.16 122.813 190.067 118.768L156.588 99.6815C149.447 95.6102 145.044 88.0598 145.044 79.8856V41.916C145.044 33.7418 149.447 26.1914 156.588 22.1201L190.067 3.0331C197.16 -1.01105 205.884 -1.01103 212.978 3.03315L246.456 22.1201C253.597 26.1914 258 33.7418 258 41.916V79.8856Z"
				fill="#1D4C42" />
			<path
				d="M101.412 22.1201C108.553 26.1914 112.956 33.7418 112.956 41.916V79.8856C112.956 88.0598 108.553 95.6102 101.412 99.6815L67.9336 118.768C60.8401 122.813 52.1164 122.813 45.0229 118.768L11.5442 99.6815C4.40308 95.6102 0 88.0598 0 79.8856V41.916C0 33.7418 4.40309 26.1914 11.5442 22.1201L45.0229 3.03311C52.1164 -1.01105 60.8401 -1.01103 67.9336 3.03315L101.412 22.1201Z"
				fill="#1D4C42" />
			<path
				d="M173.82 147.915C180.961 151.987 185.364 159.537 185.364 167.711V205.681C185.364 213.855 180.961 221.405 173.82 225.477L140.341 244.564C133.247 248.608 124.524 248.608 117.43 244.564L83.9515 225.477C76.8104 221.405 72.4073 213.855 72.4073 205.681V167.711C72.4073 159.537 76.8105 151.987 83.9517 147.915L117.43 128.829C124.524 124.785 133.247 124.785 140.341 128.829L173.82 147.915Z"
				fill="#1D4C42" />
		</symbol>

		<symbol id='stain-2' viewBox="0 0 290 256" fill="none">
			<path
				d="M49.3808 111.992C49.3808 128.973 63.1454 142.738 80.1269 142.738C97.1085 142.738 110.873 128.973 110.873 111.992C110.873 95.012 97.1085 81.2454 80.1269 81.2454C63.1454 81.2454 49.3808 95.012 49.3808 111.992Z"
				fill="#FF6358" />
			<path
				d="M119.476 168.998C119.476 198.108 143.075 221.706 172.184 221.706C201.292 221.706 224.89 198.108 224.89 168.998C224.89 139.888 201.292 116.292 172.184 116.292C143.075 116.292 119.476 139.888 119.476 168.998Z"
				fill="#FF6358" />
			<path
				d="M0 188.796C0 193.648 3.93274 197.58 8.78433 197.58C13.6359 197.58 17.5687 193.648 17.5687 188.796C17.5687 183.946 13.6359 180.014 8.78433 180.014C3.93274 180.014 0 183.946 0 188.796Z"
				fill="#FF6358" />
			<path
				d="M82.8354 40.6209C82.8354 48.9803 89.6108 55.7565 97.9693 55.7565C106.328 55.7565 113.103 48.9803 113.103 40.6209C113.103 32.265 106.328 25.4887 97.9693 25.4887C89.6108 25.4887 82.8354 32.265 82.8354 40.6209Z"
				fill="#FF6358" />
			<path
				d="M245.327 240.981C245.327 248.259 251.226 254.158 258.504 254.158C265.781 254.158 271.68 248.259 271.68 240.981C271.68 233.704 265.781 227.805 258.504 227.805C251.226 227.805 245.327 233.704 245.327 240.981Z"
				fill="#FF6358" />
			<path
				d="M237.292 143.441C237.292 157.996 249.092 169.794 263.647 169.794C278.202 169.794 290 157.996 290 143.441C290 128.887 278.202 117.088 263.647 117.088C249.092 117.088 237.292 128.887 237.292 143.441Z"
				fill="#FF6358" />
			<path
				d="M35.0443 219.93C35.0443 239.335 50.7773 255.067 70.1817 255.067C89.588 255.067 105.319 239.335 105.319 219.93C105.319 200.524 89.588 184.793 70.1817 184.793C50.7773 184.793 35.0443 200.524 35.0443 219.93Z"
				fill="#FF6358" />
			<path
				d="M149.744 43.9237C149.744 68.1816 169.41 87.8473 193.668 87.8473C217.926 87.8473 237.592 68.1816 237.592 43.9237C237.592 19.6657 217.926 0 193.668 0C169.41 0 149.744 19.6657 149.744 43.9237Z"
				fill="#FF6358" />
		</symbol>

		<symbol id='stain-3'  viewBox="0 0 103 103" fill="none">
			<path d="M0 51.5C0 44.9362 5.32717 39.609 11.891 39.609H22.7951L15.0778 31.8917C10.4284 27.2423 10.4284 19.7153 15.0778 15.0778C19.7272 10.4403 27.2542 10.4284 31.8917 15.0778L39.609 22.7951V11.891C39.609 5.32718 44.9362 0 51.5 0C58.0638 0 63.391 5.32718 63.391 11.891V22.7951L71.1083 15.0778C75.7577 10.4284 83.2847 10.4284 87.9222 15.0778C92.5597 19.7272 92.5716 27.2542 87.9222 31.8917L80.2049 39.609H91.109C97.6728 39.609 103 44.9362 103 51.5C103 58.0639 97.6728 63.391 91.109 63.391H80.2049L87.9222 71.1083C92.5716 75.7577 92.5716 83.2847 87.9222 87.9222C83.2728 92.5716 75.7458 92.5716 71.1083 87.9222L63.391 80.2049V91.109C63.391 97.6728 58.0638 103 51.5 103C44.9362 103 39.609 97.6728 39.609 91.109V80.2049L31.8917 87.9222C27.2423 92.5716 19.7153 92.5716 15.0778 87.9222C10.4284 83.2728 10.4284 75.7458 15.0778 71.1083L22.7951 63.391H11.891C5.32717 63.391 0 58.0639 0 51.5Z" fill="#D1A6CC"/>
		</symbol>

		<symbol id='stain-4' viewBox="0 0 130 132" fill="none">
			<g clip-path="url(#clip0_12_1747)">
				<path
					d="M108.067 43.9301C119.999 43.9301 129.68 34.0954 129.68 21.9644C129.68 9.83347 119.999 0 108.067 0C96.1315 0 86.4542 9.83473 86.4542 21.9644C86.4542 34.0942 76.7756 43.9301 64.8399 43.9301C52.9043 43.9301 43.2269 34.0954 43.2269 21.9657C43.2269 9.83599 33.5483 0 21.6127 0C9.67704 0 -0.000335693 9.83473 -0.000335693 21.9644C-0.000335693 34.0942 9.67704 43.9289 21.6127 43.9289C57.427 43.9289 86.4529 73.4394 86.4529 109.822C86.4529 121.946 96.1303 131.787 108.066 131.787C120.002 131.787 129.68 121.954 129.68 109.825C129.68 97.695 120.003 87.859 108.067 87.859C96.1315 87.859 86.4566 78.0243 86.4566 65.8946C86.4566 53.7649 96.1303 43.9301 108.067 43.9301Z"
					fill="#97C2E2" />
				<path
					d="M70.2441 96.0954C70.2441 76.3719 54.5229 60.4026 35.1212 60.4026C15.7194 60.4038 0.00063324 76.3719 0.00063324 96.0954C0.00063324 115.81 15.7194 131.79 35.1236 131.79C54.5254 131.79 70.2441 115.81 70.2441 96.0954Z"
					fill="#97C2E2" />
			</g>
			<defs>
				<clipPath id="clip0_12_1747">
					<rect width="129.68" height="131.789" fill="white" transform="matrix(-1 0 0 1 129.68 0)" />
				</clipPath>
			</defs>
		</symbol>

		<symbol id='stain-5' viewBox="0 0 343 303" fill="none">
			<path
				d="M252.077 302.995C310.508 302.359 342.56 257.598 342.063 193.186C341.815 125.091 314.69 58.3505 267.647 10.1161C235.429 -20.4591 190.912 24.9379 220.728 57.9693C255.555 93.6687 275.598 143.004 275.805 193.44C275.225 236.932 260.897 242.225 224.041 229.013C234.104 199.454 232.696 162.823 219.569 120.941C212.446 98.2422 202.218 72.537 180.145 54.031C154.47 32.5182 111.113 26.3354 83.0361 53.2264C36.8212 96.2095 73.1802 184.632 110.243 227.404C91.3597 220.84 74.9609 204.747 62.082 181.371C53.1786 165.025 33.0113 159.139 17.0266 168.243C1.04187 177.348 -4.71429 197.972 4.18912 214.318C18.269 240.193 43.7783 274.367 85.148 290.163C117.573 302.529 152.897 299.522 180.352 283.43C201.845 294.44 229.176 303.249 252.118 302.995H252.077ZM129.003 102.985C151.199 103.282 164.492 163.839 164.243 187.342C148.3 169.514 136.208 148.043 129.831 125.006C126.559 113.106 127.222 105.441 128.174 103.028H129.003V102.985Z"
				fill="#F5C132" />
		</symbol>

		<symbol id='facebook' width="24" height="24" viewBox="0 0 24 24" fill="none">
			<g clip-path="url(#clip0_12_1801)">
				<path
					d="M24 12C24 5.37188 18.6281 0 12 0C5.37188 0 0 5.37188 0 12C0 18.6281 5.37188 24 12 24C12.0703 24 12.1406 24 12.2109 23.9953V14.6578H9.63281V11.6531H12.2109V9.44062C12.2109 6.87656 13.7766 5.47969 16.0641 5.47969C17.1609 5.47969 18.1031 5.55938 18.375 5.59688V8.27813H16.8C15.5578 8.27813 15.3141 8.86875 15.3141 9.73594V11.6484H18.2906L17.9016 14.6531H15.3141V23.5359C20.3297 22.0969 24 17.4797 24 12Z"
					fill="#1D4C42" />
			</g>
			<defs>
				<clipPath id="clip0_12_1801">
					<rect width="24" height="24" fill="white" />
				</clipPath>
			</defs>
		</symbol>

		<symbol id='instagram' width="24" height="24" viewBox="0 0 24 24" fill="none">
			<g clip-path="url(#clip0_12_1803)">
				<path
					d="M17.3766 0H6.62295C2.97106 0 0 2.9712 0 6.62309V17.3768C0 21.0288 2.97106 23.9999 6.62295 23.9999H17.3766C21.0288 23.9999 23.9999 21.0287 23.9999 17.3768V6.62309C24 2.9712 21.0288 0 17.3766 0ZM21.8706 17.3768C21.8706 19.8547 19.8547 21.8705 17.3768 21.8705H6.62295C4.1452 21.8706 2.12938 19.8547 2.12938 17.3768V6.62309C2.12938 4.14534 4.1452 2.12938 6.62295 2.12938H17.3766C19.8545 2.12938 21.8705 4.14534 21.8705 6.62309V17.3768H21.8706Z"
					fill="#1D4C42" />
				<path
					d="M12.0001 5.81616C8.59008 5.81616 5.81592 8.59032 5.81592 12.0003C5.81592 15.4102 8.59008 18.1842 12.0001 18.1842C15.4101 18.1842 18.1842 15.4102 18.1842 12.0003C18.1842 8.59032 15.4101 5.81616 12.0001 5.81616ZM12.0001 16.0547C9.76436 16.0547 7.9453 14.2359 7.9453 12.0002C7.9453 9.76432 9.76422 7.9454 12.0001 7.9454C14.2359 7.9454 16.0548 9.76432 16.0548 12.0002C16.0548 14.2359 14.2358 16.0547 12.0001 16.0547Z"
					fill="#1D4C42" />
				<path
					d="M18.4434 4.0105C18.0331 4.0105 17.6301 4.17659 17.3404 4.46761C17.0492 4.7572 16.8818 5.16037 16.8818 5.57205C16.8818 5.98245 17.0493 6.38547 17.3404 6.67649C17.63 6.96608 18.0331 7.13359 18.4434 7.13359C18.8551 7.13359 19.2568 6.96608 19.5478 6.67649C19.8388 6.38547 20.0049 5.98231 20.0049 5.57205C20.0049 5.16037 19.8388 4.7572 19.5478 4.46761C19.2582 4.17659 18.8551 4.0105 18.4434 4.0105Z"
					fill="#1D4C42" />
			</g>
			<defs>
				<clipPath id="clip0_12_1803">
					<rect width="24" height="24" fill="white" />
				</clipPath>
			</defs>
		</symbol>

		<symbol id='whatsapp' width="23" height="23" viewBox="0 0 23 23" fill="none">
			<path fill-rule="evenodd" clip-rule="evenodd"
				d="M19.6489 3.34247C17.4868 1.18818 14.6114 0.00126343 11.5481 0C5.23585 0 0.098598 5.11253 0.096059 11.3963C0.0952127 13.405 0.622479 15.3658 1.62468 17.0942L0 23L6.0709 21.4151C7.74368 22.3232 9.62692 22.8018 11.5434 22.8023H11.5482C17.8598 22.8023 22.9976 17.6894 23 11.4054C23.0013 8.35996 21.8112 5.49661 19.6489 3.34247ZM11.5481 20.8776H11.5442C9.83625 20.8769 8.16121 20.4201 6.69959 19.5572L6.35217 19.3518L2.7496 20.2923L3.71118 16.7967L3.48478 16.4383C2.53195 14.9301 2.02881 13.1868 2.02965 11.397C2.03163 6.17409 6.30167 1.9249 11.5519 1.9249C14.0943 1.92574 16.4842 2.91234 18.2813 4.7029C20.0783 6.49346 21.0674 8.87347 21.0665 11.4047C21.0643 16.628 16.7945 20.8776 11.5481 20.8776ZM16.7691 13.7829C16.4831 13.6402 15.0762 12.9515 14.8138 12.8564C14.5517 12.7613 14.3608 12.714 14.1702 12.999C13.9793 13.284 13.4311 13.9255 13.264 14.1154C13.097 14.3055 12.9303 14.3294 12.6441 14.1867C12.3579 14.0443 11.436 13.7434 10.3429 12.7733C9.49235 12.0181 8.91811 11.0856 8.7511 10.8006C8.58438 10.5154 8.74969 10.3761 8.87664 10.2194C9.1864 9.83663 9.49658 9.43528 9.59194 9.24534C9.68743 9.05527 9.63961 8.88892 9.56796 8.74643C9.49658 8.60394 8.92432 7.20224 8.68594 6.63187C8.45348 6.07681 8.21777 6.15177 8.04202 6.14307C7.87529 6.13478 7.68444 6.1331 7.49359 6.1331C7.30288 6.1331 6.99284 6.20427 6.73048 6.48953C6.46826 6.77464 5.72912 7.46349 5.72912 8.86519C5.72912 10.2669 6.75446 11.621 6.89749 11.8111C7.04052 12.0012 8.91529 14.8776 11.7856 16.1109C12.4683 16.4046 13.0013 16.5797 13.4169 16.7109C14.1025 16.9277 14.7261 16.8971 15.2192 16.8238C15.7691 16.742 16.912 16.1348 17.1507 15.4697C17.3891 14.8044 17.3891 14.2343 17.3174 14.1154C17.246 13.9967 17.0552 13.9255 16.7691 13.7829Z"
				fill="#1D4C42" />
		</symbol>

		<symbol id='arrow' width="19" height="23" viewBox="0 0 19 23" fill="none">
			<path fill-rule="evenodd" clip-rule="evenodd"
				d="M6.31409 1.99691L7.8442 0.466797L13.3423 5.96484L17.667 10.2896H17.9772V10.5998L18.8403 11.4629L18.8364 11.4668L18.8403 11.4707L17.9772 12.3338V12.4535H17.8575L13.3423 16.9688L7.8442 22.4668L6.31409 20.9367L14.7973 12.4535H0.09375V10.2896H7.86917H14.6067L6.31409 1.99691Z"
				fill="white" />
		</symbol>
			
		<symbol id="check" viewBox="0 0 16 14" fill="none">
			<path fill-rule="evenodd" clip-rule="evenodd" d="M14.0131 2.97267e-05C14.4982 -0.00233731 14.9736 0.136702 15.3824 0.400456C15.6112 0.547516 15.7901 0.761477 15.8954 1.01383C16.0007 1.26617 16.0273 1.54492 15.9716 1.81293C15.7943 2.40716 15.4656 2.94403 15.0186 3.36998C14.1322 4.31761 13.2231 5.43229 12.4189 6.45343C12.0527 6.91832 11.6806 7.37532 11.3079 7.83301C10.5576 8.75453 9.80495 9.67883 9.09387 10.6759C9.06562 10.7155 9.03672 10.7561 9.00722 10.7975C8.17736 11.9629 6.86696 13.8031 5.69102 13.9804C4.33731 14.1845 3.31339 12.7516 2.65181 11.5676C1.71308 10.0219 0.867222 8.42058 0.118826 6.77237C-0.019637 6.41563 -0.0376225 6.02273 0.067659 5.65461C0.172941 5.28649 0.395604 4.96375 0.701105 4.73644C1.00661 4.50914 1.37786 4.38998 1.75729 4.39746C2.13671 4.40493 2.50308 4.53863 2.79956 4.77779C3.49793 5.35729 4.0628 6.31062 4.57478 7.17469C4.73241 7.44072 4.88503 7.69829 5.03499 7.93388C5.05117 7.95931 5.0664 7.98381 5.08091 8.00717C5.274 8.31792 5.34114 8.42598 5.87269 7.80799C6.88574 6.63023 7.78326 5.6258 8.74761 4.54658C9.07029 4.18547 9.40045 3.81599 9.74492 3.42883C9.99343 3.14954 10.2322 2.85485 10.4719 2.55892C11.1191 1.75998 11.7737 0.952021 12.6477 0.4138C13.0539 0.14607 13.528 0.00239676 14.0131 2.97267e-05Z" fill="currentColor"/>				
		</symbol>

		<symbol id="cross" viewBox="0 0 13 16" fill="none">
			<path fill-rule="evenodd" clip-rule="evenodd" d="M9.98614 1.02544C10.4809 0.477228 11.1179 -0.0943516 12.1831 0.797976C13.2968 1.73099 12.7919 2.86949 12.0663 3.71999C11.1007 4.85187 9.58644 6.72956 8.98769 7.47859C8.45982 8.13872 8.47608 8.16312 9.04416 9.01565C9.07594 9.06334 9.10944 9.11362 9.14467 9.16674C9.48297 9.67684 9.79437 10.1313 10.1027 10.5812C10.5397 11.219 10.9706 11.8477 11.4629 12.613C12.0375 13.5053 11.5276 14.2864 10.9596 14.8291C10.6145 15.1588 9.84378 15.5422 9.37895 15.1982C8.72655 14.7516 7.81557 13.5137 7.16357 12.6278C7.00109 12.407 6.85468 12.2081 6.73238 12.0487C6.66712 11.9636 6.60877 11.8828 6.55533 11.8088C6.27901 11.4262 6.13406 11.2255 5.84502 11.5601C5.50376 11.9428 5.19007 12.3363 4.87602 12.7303C4.52923 13.1653 4.18201 13.6009 3.79678 14.023C3.73366 14.0879 3.6691 14.1572 3.60287 14.2283C3.12948 14.7362 2.57141 15.3351 1.85171 15.0753C1.1423 14.8001 0.240144 13.9061 0.341163 13.0431C0.398043 12.63 0.681667 12.2999 0.956402 11.98C1.05008 11.871 1.14272 11.7631 1.22499 11.6536C1.91363 10.6929 2.64773 9.76915 3.42452 8.88586C3.85434 8.35741 4.00507 8.18101 3.98819 8.0246C3.97614 7.91301 3.87877 7.8116 3.73656 7.59978C3.40163 7.10045 3.09099 6.68786 2.77129 6.26325C2.57867 6.00741 2.38277 5.74722 2.17628 5.46106C1.94099 5.13508 1.70485 4.78731 1.46558 4.43492C1.22782 4.08477 0.986962 3.73004 0.740745 3.38759C-0.0368493 2.30585 0.940866 1.37207 1.97634 0.913754C2.19064 0.817355 2.4284 0.794434 2.6558 0.848252C2.88321 0.902069 3.08869 1.02988 3.24303 1.21353C3.9459 1.81346 4.47425 2.60338 5.00081 3.39063C5.37697 3.95302 5.75222 4.51405 6.18954 5.00349C6.20469 5.02052 6.22293 5.03419 6.24318 5.0437C6.26343 5.0532 6.28529 5.05834 6.30747 5.05883C6.32964 5.05931 6.35168 5.05512 6.37229 5.0465C6.3929 5.03788 6.41166 5.02502 6.42747 5.00866C7.70177 3.56711 8.75456 2.39026 9.98614 1.02544Z" fill="currentColor"/>				
		</symbol>

	</defs>
</svg>