<svg width="119" height="52" viewBox="0 0 119 52" fill="none" xmlns="http://www.w3.org/2000/svg">
<rect width="118.733" height="52" rx="26" fill="#1D4C42"/>
<path d="M28.3469 39.8666C27.0507 39.8666 26 38.8126 26 37.5131V14.4869C26 13.1873 27.0507 12.1333 28.3469 12.1333C29.6432 12.1333 30.6939 13.1873 30.6939 14.4869V37.5139C30.6939 38.8126 29.6432 39.8666 28.3469 39.8666Z" fill="white"/>
<path d="M28.4245 32.9167C27.707 32.9266 26.9944 32.6083 26.5265 31.9941C25.7395 30.9641 25.9371 29.4909 26.9679 28.7048L35.7034 22.0352C36.7335 21.249 38.2066 21.4466 38.9928 22.4766C39.7798 23.5066 39.5822 24.9798 38.5513 25.7659L29.8158 32.4356C29.3992 32.753 28.9106 32.9101 28.4245 32.9167Z" fill="#F3C133"/>
<path d="M37.137 39.8666C36.6393 39.8666 36.1384 39.7062 35.7135 39.3764L26.911 32.5224C25.8893 31.7263 25.6983 30.2433 26.4853 29.2099C27.2731 28.1766 28.7396 27.9839 29.7606 28.7792L38.563 35.6332C39.5848 36.4293 39.7758 37.9123 38.9888 38.9457C38.5291 39.55 37.8364 39.8666 37.137 39.8666Z" fill="#FF6354"/>
<path d="M46.3355 39.8667C45.0392 39.8667 43.9885 38.8036 43.9885 37.4934V23.9276C43.9885 22.6165 45.0392 21.5542 46.3355 21.5542C47.6317 21.5542 48.6824 22.6173 48.6824 23.9276V37.4934C48.6824 38.8036 47.6317 39.8667 46.3355 39.8667Z" fill="#D0A6CC"/>
<path d="M46.3277 18.2797C47.8207 18.2797 49.031 17.0694 49.031 15.5764C49.031 14.0835 47.8207 12.8732 46.3277 12.8732C44.8348 12.8732 43.6245 14.0835 43.6245 15.5764C43.6245 17.0694 44.8348 18.2797 46.3277 18.2797Z" fill="white"/>
<path d="M91.0585 30.6665C91.0585 30.6781 91.0602 30.6897 91.0602 30.7013C91.0602 33.1548 88.8587 35.1512 86.153 35.1512C83.4473 35.1512 81.2459 33.1548 81.2459 30.7013C81.2459 30.6897 81.2475 30.6781 81.2475 30.6665H76.5537C76.5537 30.6781 76.552 30.6897 76.552 30.7013C76.552 35.7431 80.859 39.8451 86.153 39.8451C91.447 39.8451 95.7549 35.744 95.7549 30.7013C95.7549 30.6897 95.7532 30.6781 95.7532 30.6665H91.0585Z" fill="#D0A6CC"/>
<path d="M95.7523 30.6682H91.0585C91.0395 28.2271 88.848 26.2513 86.1538 26.2513C83.4597 26.2513 81.2673 28.2271 81.2491 30.6682H81.2401C81.245 30.7013 81.245 30.7344 81.245 30.7666C81.245 32.062 80.1935 33.1135 78.8981 33.1135C77.6076 33.1135 76.5561 32.062 76.5561 30.7666C76.5561 30.7335 76.5561 30.7013 76.5611 30.6682H76.5561C76.5561 30.6773 76.5511 30.6914 76.5511 30.7013C76.5511 25.6602 80.8598 21.5574 86.1546 21.5574C91.4388 21.5583 95.7333 25.6412 95.7523 30.6682Z" fill="white"/>
<path d="M93.4073 33.1118C94.7017 33.1118 95.751 32.0626 95.751 30.7682C95.751 29.4739 94.7017 28.4246 93.4073 28.4246C92.113 28.4246 91.0637 29.4739 91.0637 30.7682C91.0637 32.0626 92.113 33.1118 93.4073 33.1118Z" fill="#F3C133"/>
<path d="M72.3657 30.7013C72.3657 30.7509 72.3591 30.7997 72.3574 30.8493C72.3591 30.8112 72.369 30.7749 72.369 30.736C72.369 30.7244 72.3657 30.7137 72.3657 30.7013Z" fill="#FF6354"/>
<path d="M70.0287 39.8667C68.7325 39.8667 67.6818 38.8119 67.6818 37.5115V14.4894C67.6818 13.1891 68.7325 12.1342 70.0287 12.1342C71.3249 12.1342 72.3756 13.1891 72.3756 14.4894V37.5115C72.3756 38.8119 71.3249 39.8667 70.0287 39.8667Z" fill="white"/>
<path d="M70.0287 33.0805C71.323 33.0805 72.3723 32.0312 72.3723 30.7368C72.3723 29.4425 71.323 28.3932 70.0287 28.3932C68.7343 28.3932 67.6851 29.4425 67.6851 30.7368C67.6851 32.0312 68.7343 33.0805 70.0287 33.0805Z" fill="#FF6354"/>
<path d="M67.6843 37.5213V30.6236H67.6959C67.7563 29.3827 68.7731 28.3932 70.0288 28.3932C71.2845 28.3932 72.3013 29.3827 72.3617 30.6236H72.3716C72.322 25.6222 68.0382 21.5665 62.7747 21.5665C57.4807 21.5665 53.1737 25.6685 53.1737 30.7104C53.1737 35.7523 57.4807 39.8542 62.7747 39.8542C64.6496 39.8542 66.3947 39.3318 67.8745 38.4439C67.753 38.1604 67.6843 37.8487 67.6843 37.5213ZM62.7739 35.1604C60.0682 35.1604 57.8667 33.1639 57.8667 30.7104C57.8667 28.2568 60.0682 26.2604 62.7739 26.2604C65.4796 26.2604 67.681 28.2568 67.681 30.7104C67.6819 33.1639 65.4796 35.1604 62.7739 35.1604Z" fill="#97C2E1"/>
</svg>
